PathFileType	4	(X/Y/Z)	SUBJ11_0_static_RCNL2025.trc
DataRate	CameraRate	NumFrames	NumMarkers	Units	OrigDataRate	OrigDataStartFrame	OrigNumFrames
100	100	7	25	mm	100	1	120
Frame#	Time	R_Shoulder			L_Shoulder			C7			J_Notch			R_Elbow			L_Elbow			R_Wrist			L_Wrist			R_Asis			L_Asis			Sacral			Thoracic			Sternum			R_Thigh_Lateral			R_Knee_Lateral			R_Shank_Lateral			R_Ankle_Lateral			R_Heel			R_Toe			L_Thigh_Lateral			L_Knee_Lateral			L_Shank_Lateral			L_Ankle_Lateral			L_Heel			L_Toe		
		X1	Y1	Z1	X2	Y2	Z2	X3	Y3	Z3	X4	Y4	Z4	X5	Y5	Z5	X6	Y6	Z6	X7	Y7	Z7	X8	Y8	Z8	X9	Y9	Z9	X10	Y10	Z10	X11	Y11	Z11	X12	Y12	Z12	X13	Y13	Z13	X14	Y14	Z14	X15	Y15	Z15	X16	Y16	Z16	X17	Y17	Z17	X18	Y18	Z18	X19	Y19	Z19	X20	Y20	Z20	X21	Y21	Z21	X22	Y22	Z22	X23	Y23	Z23	X24	Y24	Z24	X25	Y25	Z25
1	0.00000000	-324.771027	1319.718262	18.662457	-336.994141	1359.044922	-419.869171	-401.112305	1422.928467	-208.730469	-268.322693	1321.313965	-214.700577	-389.071014	1050.419067	124.826698	-339.288605	1074.977783	-542.330566	-322.277084	799.768768	140.223824	-267.375748	823.315613	-568.457031	-255.673645	905.929199	-107.479607	-275.797211	917.000000	-357.624664	-447.156250	947.391968	-207.168182	-468.760986	1204.281494	-207.989349	-219.308044	1166.053223	-228.902802	-316.925446	576.360474	-7.421373	-372.384674	460.710846	-83.728874	-387.727325	245.883865	-20.982018	-409.007690	64.199310	-82.015366	-455.322296	55.882126	-141.377518	-271.768066	43.214199	-97.163612	-369.338074	585.023865	-426.432983	-366.643646	478.233917	-374.082031	-412.463440	239.871490	-416.144745	-409.033447	64.104477	-361.308899	-452.808502	62.264660	-298.816406	-248.827988	64.612022	-348.691650
2	0.01000000	-332.840424	1316.434692	17.027775	-336.863312	1359.071411	-419.838562	-401.103546	1422.993896	-208.717041	-266.683411	1321.642578	-214.053604	-389.132111	1050.599121	124.841164	-339.209015	1075.028076	-542.162842	-322.094940	799.614716	140.200523	-273.011459	821.729401	-570.131073	-255.846878	905.777649	-107.578842	-275.730316	917.016052	-357.562103	-447.122192	947.432983	-207.060455	-468.664154	1204.278931	-207.968704	-219.152985	1166.201782	-228.949799	-316.695709	576.129150	-7.573724	-372.285156	460.745453	-83.654251	-383.270203	240.521408	-24.916376	-409.388489	64.591080	-81.779213	-455.099609	56.082401	-141.572052	-272.173096	43.559322	-96.984985	-369.464355	584.925598	-426.591583	-366.544495	478.182129	-374.214630	-412.466919	239.923386	-415.999512	-409.022522	64.097908	-361.289703	-452.783997	62.258060	-298.797363	-249.010406	64.443321	-348.796173
3	0.02000000	-334.841644	1315.753418	17.855104	-336.827850	1359.053955	-420.028046	-401.018219	1422.917603	-208.851730	-266.110748	1321.581909	-214.013443	-389.111877	1050.640381	124.816391	-339.186432	1074.997070	-542.128784	-322.005325	799.673859	140.071667	-276.945007	820.657898	-571.263062	-255.975983	905.732361	-107.618164	-275.701691	917.024719	-357.587921	-447.122101	947.434082	-207.056763	-468.586914	1204.270752	-208.013626	-219.160828	1166.337524	-229.048416	-316.857788	576.308289	-7.353776	-372.310059	460.895050	-83.688698	-381.918243	239.710770	-25.433899	-409.422119	64.525566	-81.950409	-455.177460	56.045177	-141.538742	-272.437073	43.811527	-96.872864	-369.470947	584.924988	-426.529846	-366.587494	478.134796	-374.192841	-412.514526	239.939835	-415.931305	-409.076385	64.105156	-361.321228	-452.912109	62.360821	-298.754578	-249.121033	64.481621	-348.849091
4	0.03000000	-334.131775	1316.161865	17.973591	-336.679565	1359.089111	-419.987854	-401.015594	1422.894897	-208.883621	-266.428070	1321.567993	-214.153824	-388.941986	1050.640259	124.811798	-339.194916	1074.995728	-542.139587	-321.953827	799.731812	140.030319	-278.483215	820.245148	-571.586792	-255.988617	905.807373	-107.577454	-275.703705	917.023560	-357.560516	-447.058105	947.403809	-206.992783	-468.584412	1204.255371	-208.018143	-219.094376	1166.225098	-228.988617	-317.026672	576.268860	-7.293403	-372.281189	460.805359	-83.662552	-382.905792	240.330963	-24.954397	-409.370972	64.506187	-81.912910	-455.130707	55.959362	-141.615463	-272.347961	43.689812	-96.906967	-369.477692	584.924866	-426.528717	-366.732697	478.178528	-374.020935	-412.495850	239.891190	-415.917328	-409.094025	64.114746	-361.295837	-452.835052	62.267590	-298.811554	-249.224274	64.428207	-348.870453
5	0.04000000	-332.908569	1316.473145	17.267830	-336.553192	1359.118286	-420.147552	-401.016663	1422.938110	-208.870575	-266.756287	1321.705933	-214.127823	-388.856201	1050.738892	124.886375	-339.182800	1074.940796	-542.145386	-321.870560	799.905640	140.079449	-277.979172	820.379791	-571.260315	-255.801712	905.792480	-107.455177	-275.711884	917.020874	-357.554535	-447.052765	947.385437	-206.991501	-468.578308	1204.300659	-208.039078	-218.999878	1166.316284	-228.971146	-317.248474	576.315979	-7.331184	-372.267212	460.746613	-83.648354	-383.488403	240.492310	-24.774385	-409.466125	64.569138	-81.844711	-455.234436	55.911682	-141.509735	-271.768524	42.972794	-97.153259	-369.495270	584.859985	-426.391235	-366.868866	478.140076	-373.846008	-412.441376	239.909775	-415.773865	-409.164001	64.071297	-361.255066	-452.878540	62.301552	-298.752411	-249.257294	64.409752	-348.874664
6	0.05000000	-332.291656	1316.699585	16.741842	-336.268768	1359.224365	-419.927887	-400.951172	1423.010986	-208.922501	-267.330109	1321.666016	-214.562515	-388.879517	1050.753906	124.894203	-339.201935	1074.943237	-542.203613	-321.822495	800.048279	140.058720	-275.966995	821.057037	-570.484741	-255.551666	905.837646	-107.343781	-275.634430	917.044128	-357.502258	-447.053864	947.370300	-206.995377	-468.591980	1204.282959	-208.021500	-219.018250	1166.337402	-229.044647	-317.317902	576.438538	-7.124907	-372.306366	460.658020	-83.727371	-386.511200	243.481750	-22.277060	-409.461700	64.595200	-81.882736	-455.222229	55.979980	-141.657150	-271.653473	42.801682	-97.268127	-369.510773	584.905457	-426.338165	-366.801178	478.193878	-373.930389	-412.508789	239.927719	-415.858612	-409.163574	64.061691	-361.283630	-452.925049	62.326859	-298.760895	-249.337158	64.329826	-348.896118
7	0.06000000	-332.154449	1316.801758	16.599630	-336.083801	1359.259766	-419.942139	-400.874451	1422.985229	-208.839966	-267.408386	1321.686279	-214.485855	-388.533264	1050.608276	124.745605	-339.180389	1075.092896	-542.303528	-321.674622	799.957245	140.175892	-273.625946	821.605377	-569.691589	-255.369171	905.890503	-107.325981	-275.649170	916.993713	-357.379700	-447.053955	947.370056	-206.995667	-468.572662	1204.219849	-208.043472	-219.162674	1166.556763	-229.284302	-317.283630	576.418213	-7.146374	-372.408905	460.612793	-83.770889	-388.972626	246.492508	-19.924507	-409.516541	64.625008	-81.839821	-455.227661	55.998245	-141.740479	-271.553955	42.862217	-97.227928	-369.561768	584.991272	-426.447266	-366.668182	478.140289	-373.818329	-412.533508	239.890671	-415.981934	-409.315155	64.688698	-362.210388	-452.895172	62.294201	-298.751801	-249.320694	64.320839	-348.829926
